<svg xmlns="http://www.w3.org/2000/svg" width="20" height="20" viewBox="0 0 48 48" role="img" aria-label="Google mark">
  <path fill="#FFC107" d="M43.611,20.083H42V20H24v8h11.303c-1.649,4.657-6.08,8-11.303,8c-6.627,0-12-5.373-12-12 c0-6.627,5.373-12,12-12c3.059,0,5.842,1.154,7.951,3.049l5.657-5.657C34.046,6.053,29.268,4,24,4C12.955,4,4,12.955,4,24 s8.955,20,20,20s20-8.955,20-20C44,22.659,43.863,21.35,43.611,20.083z"/>
  <path fill="#FF3D00" d="M6.306,14.691l6.571,4.819C14.655,16.108,18.961,14,24,14c3.059,0,5.842,1.154,7.951,3.049l5.657-5.657 C34.046,6.053,29.268,4,24,4C16.318,4,9.656,8.337,6.306,14.691z"/>
  <path fill="#4CAF50" d="M24,44c5.166,0,9.86-1.977,13.409-5.192l-6.19-5.238C29.231,35.091,26.774,36,24,36 c-5.202,0-9.619-3.317-11.283-7.946l-6.51,5.018C9.51,39.556,16.227,44,24,44z"/>
  <path fill="#1976D2" d="M43.611,20.083H42V20H24v8h11.303c-0.793,2.24-2.231,4.166-3.994,5.57c0.001-0.001,0.002-0.001,0.003-0.002 l6.19,5.238C35.138,39.205,44,34,44,24C44,22.659,43.863,21.35,43.611,20.083z"/>
</svg>

